# xmcd
#
# Track frame offsets: 
#        150
#        21540
#        46488
#        70046
#        92265
#        111130
#        130780
#        155899
#        179734
#        206349
#        230767
#        256751
#
# Disc length: 3716 seconds
#
# Revision: 0
# Processed by: cddbd v1.5.2PL0 Copyright (c) Steve Scherf et al.
# Submitted via: ExactAudioCopy v1.0b3
#
DISCID=a50e820c
DTITLE=Mong Thi - Thuong Mot Dong Song
DYEAR=2001
DGENRE=
TTITLE0=Vung la me bay
TTITLE1=Thuong mai mot dong song
TTITLE2=Nam cum nui que huong
TTITLE3=Cho nguoi
TTITLE4=Chi toi 2
TTITLE5=Lang le phu sa
TTITLE6=Chuyen do Hau Giang
TTITLE7=Chuyen ngay xua
TTITLE8=Chuyen tinh sau rieng
TTITLE9=Hinh bong que nha
TTITLE10=Hoa tim ngay xua
TTITLE11=Sao em khong nho Go Cong
EXTD=
EXTT0=
EXTT1=
EXTT2=
EXTT3=
EXTT4=
EXTT5=
EXTT6=
EXTT7=
EXTT8=
EXTT9=
EXTT10=
EXTT11=
PLAYORDER=
